<svg width="30" height="13" viewBox="0 0 30 13" fill="none" xmlns="http://www.w3.org/2000/svg">
<path d="M0.223408 5.93606L6.06905 0.218059C6.36597 -0.0726864 6.84228 -0.0726864 7.1392 0.218059C7.43612 0.508805 7.43612 0.975209 7.1392 1.26596L2.58641 5.72406H28.4928C28.9134 5.72406 29.2537 6.0572 29.2537 6.46909C29.2537 6.88098 28.9134 7.21413 28.4928 7.21413H2.58641L7.1392 11.6601C7.43612 11.9509 7.43612 12.4173 7.1392 12.708C6.99074 12.8534 6.79898 12.9261 6.60103 12.9261C6.40308 12.9261 6.21132 12.8534 6.06286 12.708L0.21722 6.98395C-0.0735149 6.69927 -0.0735149 6.2268 0.223408 5.93606Z" fill="#FFFCFC"/>
</svg>
