<svg width="30" height="13" viewBox="0 0 30 13" fill="none" xmlns="http://www.w3.org/2000/svg">
<path d="M29.2839 5.93606L23.4383 0.218059C23.1414 -0.0726864 22.665 -0.0726864 22.3681 0.218059C22.0712 0.508805 22.0712 0.975209 22.3681 1.26596L26.9209 5.72406H1.01452C0.593885 5.72406 0.253662 6.0572 0.253662 6.46909C0.253662 6.88098 0.593885 7.21413 1.01452 7.21413H26.9209L22.3681 11.6601C22.0712 11.9509 22.0712 12.4173 22.3681 12.708C22.5166 12.8534 22.7083 12.9261 22.9063 12.9261C23.1042 12.9261 23.296 12.8534 23.4445 12.708L29.2901 6.98395C29.5808 6.69927 29.5808 6.2268 29.2839 5.93606Z" fill="#FFFCFC"/>
</svg>
